<svg xmlns="http://www.w3.org/2000/svg" viewBox="0 0 717.71 722.29">
    <defs>
        <style>.a{fill:#fff;}</style>
    </defs>
    <circle cx="138.57" cy="253.85" r="107.96" />
    <circle class="a" cx="138.57" cy="253.85" r="61.71" />
    <polygon points="169.99 156.31 109.42 156.31 117.89 113 161.2 113 169.99 156.31" />
    <polygon points="235.34 210.28 193.63 166.36 230.86 142.68 260.69 174.08 235.34 210.28" />
    <polygon points="233.82 287.67 233.82 227.1 277.13 235.57 277.13 278.88 233.82 287.67" />
    <polygon points="183.71 347.22 226.54 304.39 251.18 341.01 220.55 371.63 183.71 347.22" />
    <polygon points="108.13 351.36 168.68 352.92 159.1 396 115.8 394.88 108.13 351.36" />
    <polygon points="41.8 210.51 83.51 166.59 46.27 142.91 16.45 174.31 41.8 210.51" />
    <polygon points="43.31 287.9 43.31 227.33 0 235.8 0 279.11 43.31 287.9" />
    <polygon points="93.43 347.46 50.6 304.63 25.96 341.24 56.59 371.87 93.43 347.46" />
    <circle cx="360.04" cy="352.61" r="74.82" />
    <path class="a"
        d="M954.54,405.29a71.32,71.32,0,1,1-71.32,71.32,71.32,71.32,0,0,1,71.32-71.32m0-7a78.32,78.32,0,1,0,78.31,78.32,78.41,78.41,0,0,0-78.31-78.32Z"
        transform="translate(-594.5 -124)" />
    <path
        d="M951.6,714.79c-42.66,0-84.84-10.78-125.34-32l-2-1,.08-2.2a222.43,222.43,0,0,1,10.87-56.87c13.13-39,35.88-62.78,65.78-68.87l1.58-.33,55.4,43.3,51.72-43.42,1.79.51c.74.21,18.26,5.32,36.2,23.5,16.4,16.63,36.24,47.87,37.61,102.22l.05,2.28-2.06,1C1038.54,704,994.22,714.79,951.6,714.79Z"
        transform="translate(-594.5 -124)" />
    <path class="a"
        d="M1010.58,557.21s68.67,19.43,71.26,122.44c-43.94,20.81-87.37,31.64-130.24,31.64-41.78,0-83-10.28-123.71-31.64,0,0,3.88-108.19,73.85-122.44l56.36,44,52.48-44m-1.67-7.75-2.84,2.39-48.13,40.4-51.89-40.56-2.54-2-3.17.65c-17.54,3.57-32.69,12.82-45,27.5-9.59,11.42-17.46,26.12-23.38,43.69a226.21,226.21,0,0,0-11.05,57.86l-.16,4.4,3.9,2c41,21.54,83.73,32.45,127,32.45s88-10.87,133.23-32.32l4.12-2-.12-4.55c-.61-24.36-4.9-46.27-12.76-65.1a123.54,123.54,0,0,0-25.85-39.49c-18.58-18.83-37-24.19-37.74-24.41l-3.57-1Z"
        transform="translate(-594.5 -124)" />
    <circle cx="1151.54" cy="604.61" r="74.82" transform="translate(-738.22 362.7) rotate(-22.5)" />
    <path class="a"
        d="M1151.54,533.29a71.32,71.32,0,1,1-71.32,71.32,71.32,71.32,0,0,1,71.32-71.32m0-7a78.32,78.32,0,1,0,78.31,78.32,78.41,78.41,0,0,0-78.31-78.32Z"
        transform="translate(-594.5 -124)" />
    <path
        d="M1148.6,842.79c-42.66,0-84.84-10.78-125.34-32l-2-1,.08-2.2a222.43,222.43,0,0,1,10.87-56.87c13.13-39,35.88-62.78,65.78-68.87l1.58-.33,55.4,43.3,51.72-43.42,1.79.51c.74.21,18.26,5.32,36.2,23.5,16.4,16.63,36.24,47.87,37.61,102.22l.05,2.28-2.06,1C1235.54,832,1191.22,842.79,1148.6,842.79Z"
        transform="translate(-594.5 -124)" />
    <path class="a"
        d="M1207.58,685.21s68.67,19.43,71.26,122.44c-43.94,20.81-87.37,31.64-130.24,31.64-41.78,0-83-10.28-123.71-31.64,0,0,3.88-108.19,73.85-122.44l56.36,44,52.48-44m-1.67-7.75-2.84,2.39-48.13,40.4-51.89-40.56-2.54-2-3.17.65c-17.54,3.57-32.69,12.82-45,27.5-9.59,11.42-17.46,26.12-23.38,43.69a226.21,226.21,0,0,0-11.05,57.86l-.16,4.4,3.9,2c41,21.54,83.73,32.45,127,32.45s88-10.87,133.23-32.32l4.12-2-.12-4.55c-.61-24.36-4.9-46.27-12.76-65.1a123.54,123.54,0,0,0-25.85-39.49c-18.58-18.83-37-24.19-37.74-24.41l-3.57-1Z"
        transform="translate(-594.5 -124)" />
    <circle cx="165.15" cy="480.32" r="74.82" />
    <path class="a"
        d="M759.65,533a71.32,71.32,0,1,1-71.31,71.32A71.32,71.32,0,0,1,759.65,533m0-7A78.32,78.32,0,1,0,838,604.32,78.4,78.4,0,0,0,759.65,526Z"
        transform="translate(-594.5 -124)" />
    <path
        d="M756.72,842.5c-42.67,0-84.84-10.78-125.35-32l-2-1,.08-2.2a222.36,222.36,0,0,1,10.87-56.87c13.14-39,35.89-62.79,65.78-68.88l1.59-.32,55.4,43.3L814.86,681l1.78.51c.74.2,18.27,5.32,36.2,23.5,16.4,16.63,36.24,47.86,37.61,102.22l.06,2.27-2.06,1C843.65,831.74,799.33,842.5,756.72,842.5Z"
        transform="translate(-594.5 -124)" />
    <path class="a"
        d="M815.69,684.91S884.36,704.35,887,807.35C843,828.17,799.58,839,756.72,839c-41.79,0-83-10.29-123.72-31.65,0,0,3.89-108.18,73.85-122.44L763.21,729l52.48-44.06M814,677.17l-2.84,2.38L763.06,720l-51.9-40.56-2.54-2-3.16.64c-17.55,3.58-32.7,12.83-45,27.51-9.6,11.41-17.46,26.11-23.38,43.68A227.12,227.12,0,0,0,626,807.1l-.15,4.4,3.9,2c41,21.53,83.73,32.45,127,32.45s88-10.87,133.23-32.32l4.11-1.95-.11-4.55c-.61-24.37-4.91-46.27-12.77-65.11a123.33,123.33,0,0,0-25.85-39.48c-18.57-18.83-37-24.19-37.73-24.41l-3.57-1Z"
        transform="translate(-594.5 -124)" />
    <circle cx="579.14" cy="256.92" r="107.96" />
    <circle class="a" cx="579.14" cy="256.92" r="61.71" />
    <polygon points="610.57 159.39 549.99 159.39 558.46 116.07 601.77 116.07 610.57 159.39" />
    <polygon points="675.91 213.36 634.2 169.44 671.43 145.75 701.26 177.16 675.91 213.36" />
    <polygon points="674.39 290.75 674.39 230.17 717.71 238.64 717.71 281.95 674.39 290.75" />
    <polygon points="624.28 350.3 667.11 307.47 691.75 344.08 661.12 374.71 624.28 350.3" />
    <polygon points="548.7 354.43 609.25 355.99 599.67 399.07 556.38 397.96 548.7 354.43" />
    <polygon points="482.37 213.59 524.08 169.67 486.85 145.98 457.02 177.39 482.37 213.59" />
    <polygon points="483.88 290.98 483.88 230.41 440.57 238.87 440.57 282.19 483.88 290.98" />
    <polygon points="534 350.53 491.17 307.7 466.53 344.31 497.16 374.94 534 350.53" />
    <circle cx="360.43" cy="104.55" r="80.14" />
    <circle class="a" cx="360.43" cy="104.55" r="45.81" />
    <polygon points="383.76 32.15 338.8 32.15 345.08 0 377.23 0 383.76 32.15" />
    <polygon points="432.27 72.22 401.3 39.61 428.94 22.03 451.08 45.34 432.27 72.22" />
    <polygon points="431.14 129.66 431.14 84.7 463.29 90.98 463.29 123.13 431.14 129.66" />
    <polygon points="393.94 173.87 425.73 142.07 444.02 169.25 421.29 191.99 393.94 173.87" />
    <polygon points="337.84 176.94 382.79 178.1 375.68 210.07 343.53 209.25 337.84 176.94" />
    <polygon points="288.6 72.39 319.56 39.78 291.92 22.2 269.78 45.51 288.6 72.39" />
    <polygon points="289.72 129.83 289.72 84.87 257.57 91.16 257.57 123.31 289.72 129.83" />
    <polygon points="326.93 174.04 295.13 142.25 276.84 169.42 299.58 192.16 326.93 174.04" />
</svg>